HIERARCHY
ROOT hip
{
	OFFSET 0.000000 0.000000 0.000000 
	CHANNELS 6 Xposition Yposition Zposition Xrotation Zrotation Yrotation
	JOINT abdomen
	{
		OFFSET 0.000000 3.402643 0.000000 
		CHANNELS 3 Xrotation Zrotation Yrotation
		JOINT chest
		{
			OFFSET 0.000000 8.438565 -0.680529 
			CHANNELS 3 Xrotation Zrotation Yrotation
			JOINT neck
			{
				OFFSET 0.000000 10.207942 -0.272212 
				CHANNELS 3 Xrotation Zrotation Yrotation
				JOINT head
				{
					OFFSET 0.000000 3.130431 0.000000 
					CHANNELS 3 Xrotation Zrotation Yrotation
					End Site
					{
						OFFSET 0.000000 3.130435 0.000000 
					}
				}
			}
			JOINT lCollar
			{
				OFFSET 3.470700 6.669187 -0.816635 
				CHANNELS 3 Yrotation Zrotation Xrotation
				JOINT lShldr
				{
					OFFSET 3.198488 0.000000 0.000000 
					CHANNELS 3 Zrotation Yrotation Xrotation
					JOINT lForeArm
					{
						OFFSET 10.139888 0.000000 0.000000 
						CHANNELS 3 Yrotation Zrotation Xrotation
						JOINT lHand
						{
							OFFSET 8.370511 0.000000 0.000000 
							CHANNELS 3 Zrotation Yrotation Xrotation
							End Site
							{
								OFFSET 4.083176 0.000000 0.000000 
							}
						}
					}
				}
			}
			JOINT rCollar
			{
				OFFSET -3.470700 6.669187 -0.816635 
				CHANNELS 3 Yrotation Zrotation Xrotation
				JOINT rShldr
				{
					OFFSET -3.198488 0.000000 0.000000 
					CHANNELS 3 Zrotation Yrotation Xrotation
					JOINT rForeArm
					{
						OFFSET -10.139888 0.000000 0.000000 
						CHANNELS 3 Yrotation Zrotation Xrotation
						JOINT rHand
						{
							OFFSET -8.370511 0.000000 0.000000 
							CHANNELS 3 Zrotation Yrotation Xrotation
							End Site
							{
								OFFSET -4.083176 0.000000 0.000000 
							}
						}
					}
				}
			}
		}
	}
	JOINT lThigh
	{
		OFFSET 5.308129 -1.633274 1.361059 
		CHANNELS 3 Xrotation Zrotation Yrotation
		JOINT lShin
		{
			OFFSET -2.041588 -20.007561 0.000000 
			CHANNELS 3 Xrotation Zrotation Yrotation
			JOINT lFoot
			{
				OFFSET 0.000000 -19.190928 -1.224953 
				CHANNELS 3 Xrotation Yrotation Zrotation
				End Site
				{
					OFFSET 0.000000 -2.449906 4.627600 
				}
			}
		}
	}
	JOINT rThigh
	{
		OFFSET -5.308129 -1.633274 1.361059 
		CHANNELS 3 Xrotation Zrotation Yrotation
		JOINT rShin
		{
			OFFSET 2.041588 -20.007561 0.000000 
			CHANNELS 3 Xrotation Zrotation Yrotation
			JOINT rFoot
			{
				OFFSET 0.000000 -19.190928 -1.224953 
				CHANNELS 3 Xrotation Yrotation Zrotation
				End Site
				{
					OFFSET 0.000000 -2.449906 4.627600 
				}
			}
		}
	}
}
MOTION
Frames: 16
Frame Time: 0.016667
-0.305103 44.505428 -0.226839 13.920800 -3.972010 -13.435100 -30.983400 0.636247 -3.966970 5.954200 1.115130 -1.999430 19.974001 -0.507948 -2.009570 14.842300 3.469340 -0.222626 2.000000 -2.000000 0.000000 -82.906799 -17.920300 -121.335999 121.553001 -0.138195 0.134626 0.127984 -0.140703 161.798996 -2.000000 2.000000 0.000000 42.926899 -7.808760 166.007004 -95.996498 0.201586 0.116500 179.912003 179.901993 5.353720 -2.377220 4.664059 -36.786564 0.050719 4.226756 -0.115279 -31.697016 47.431023 25.530354 -9.824168 8.070462 24.260988 -1.055049 -0.244963 -0.336580 -2.557213 -18.429798 -2.172518 
-0.333762 44.495800 -0.194915 13.822600 -3.954710 -13.355400 -30.978201 0.718172 -3.803100 6.111190 0.964609 -1.898830 20.152500 -0.777996 -1.974030 14.871000 3.420990 -0.220264 2.000000 -2.000000 0.000000 -81.654800 -15.484500 -125.536003 122.315002 -0.136542 0.133596 0.124578 -0.148548 163.195999 -2.000000 2.000000 0.000000 44.490200 -9.333240 166.451996 -100.245003 0.192270 0.115171 179.910995 179.891006 5.002180 -2.210250 4.627561 -36.941841 0.024350 4.226837 -0.125253 -31.966036 47.433327 25.761868 -9.709223 8.131973 24.372490 -0.916402 -0.341074 -0.299806 -2.774329 -18.601152 -2.177949 
-0.368126 44.481018 -0.161961 13.714800 -3.947040 -13.238200 -30.962500 0.806775 -3.676300 6.297220 0.851832 -1.808250 20.298500 -1.097250 -1.893730 14.870200 3.363440 -0.192214 2.000000 -2.000000 0.000000 -80.411903 -12.941700 -129.707001 123.310997 -0.134402 0.132216 0.124933 -0.148753 163.048996 -2.000000 2.000000 0.000000 46.102501 -10.780300 167.210999 -104.981003 0.182032 0.112881 179.910004 179.899002 4.211150 -2.043874 4.604315 -36.978893 -0.022101 4.226898 -0.125376 -31.905626 47.451324 25.720118 -9.612014 8.241575 24.480095 -0.680566 -0.498624 -0.297526 -2.967847 -18.785851 -2.117356 
-0.402293 44.462898 -0.126694 13.586800 -3.901700 -13.071500 -30.946100 0.863426 -3.552690 6.483300 0.700968 -1.728440 20.540800 -1.460290 -1.789700 14.918300 3.295670 -0.153427 2.000000 -2.000000 0.000000 -79.197304 -10.281700 -133.518997 124.628998 -0.131606 0.130332 0.126859 -0.149846 162.257996 -2.000000 2.000000 0.000000 47.910301 -12.120300 168.113998 -109.697998 0.172058 0.109767 179.908997 179.897995 3.674040 -1.878291 4.507927 -37.027176 -0.031723 4.236616 -0.125554 -31.654089 47.536816 25.526657 -9.444664 8.199442 24.497267 -0.624629 -0.554593 -0.274801 -3.082250 -18.918861 -2.130782 
-0.440671 44.445171 -0.095965 13.468600 -3.856140 -12.886200 -31.628799 0.387762 -3.142810 4.901710 -0.507783 -1.537400 21.602400 -1.599680 -1.762420 15.248900 3.147560 -0.104248 2.000000 -2.000000 0.000000 -77.121902 -6.156630 -136.923004 126.376999 -0.127968 0.127736 0.126859 -0.149846 162.257996 -2.000000 2.000000 0.000000 50.754299 -14.302900 170.158997 -114.512001 0.162177 0.105755 179.908005 179.897003 3.136930 -1.752696 4.403376 -37.172424 0.005597 4.217517 -0.105544 -31.665112 47.578018 25.532667 -9.181800 7.992240 24.506250 -0.919290 -0.387796 -0.298651 -3.091436 -19.015488 -2.268501 
-0.480745 44.427952 -0.072606 13.390100 -3.847890 -12.722400 -30.736401 1.028230 -3.418120 7.216120 0.570128 -1.609800 21.201700 -2.378620 -1.577240 15.129800 3.014930 -0.039348 2.000000 -2.000000 0.000000 -77.186302 -4.864660 -140.744003 127.880997 -0.124903 0.125415 0.125217 -0.148917 162.932007 -2.000000 2.000000 0.000000 52.179901 -13.727900 170.697998 -118.779999 0.153728 0.101515 179.908005 179.895996 2.804900 -1.644225 4.375715 -37.364727 0.014371 4.217308 -0.115267 -31.907940 47.622078 25.770412 -9.174144 8.131971 24.434484 -0.595595 -0.586246 -0.282884 -3.286789 -19.042845 -2.166603 
-0.517977 44.409950 -0.047188 13.312300 -3.877640 -12.645800 -30.620300 0.958927 -3.249020 7.578090 0.123710 -1.503120 21.848101 -2.224300 -1.424330 15.385100 3.088330 0.057738 2.000000 -2.000000 0.000000 -76.155701 -2.097490 -144.057999 129.755997 -0.121168 0.122410 0.122013 -0.147028 164.259995 -2.000000 2.000000 0.000000 -125.153000 -165.789001 -7.428560 -122.919998 0.145853 0.096812 179.908005 179.895996 2.853730 -1.468845 4.391460 -37.588707 -0.037502 4.236746 -0.115335 -32.302040 47.726772 26.134068 -8.971190 8.037190 24.410656 -0.830174 -0.441521 -0.284412 -3.271273 -18.996580 -2.290957 
-0.550616 44.394405 -0.019434 13.226000 -3.993130 -12.588500 -30.731300 1.110580 -3.198330 7.441380 0.114131 -1.462140 22.365801 -2.758550 -1.327480 15.519500 2.895170 0.114084 2.000000 -2.000000 0.000000 -75.857002 1.177740 -147.121002 131.865997 -0.117086 0.118885 0.119246 -0.145315 165.421997 -2.000000 2.000000 0.000000 -123.061996 -165.167999 -4.881260 -126.825996 0.138753 0.091864 179.908005 179.897003 3.136930 -1.264661 4.501660 -37.703529 -0.064445 4.236280 -0.125259 -32.667320 47.723263 26.478899 -8.815696 8.167582 24.497961 -0.817102 -0.445415 -0.283916 -3.416222 -19.078136 -2.341112 
-0.571516 44.382332 0.007694 13.149300 -4.089500 -12.615000 -30.765301 1.254010 -3.061560 7.519530 -0.019028 -1.362780 23.606001 -2.886090 -1.175260 16.037399 2.859990 0.231756 2.000000 -2.000000 0.000000 -75.695198 4.218160 -150.292007 133.770004 -0.113515 0.115575 0.115968 -0.133418 166.819000 -2.000000 2.000000 0.000000 -120.853996 -164.751007 -2.167440 -130.283005 0.132764 0.087091 179.908997 179.897995 3.693570 -1.090126 4.572242 -37.768337 -0.085007 4.235941 -0.125155 -33.366455 47.596188 27.048616 -8.673179 8.253362 24.399326 -0.830601 -0.418438 -0.294790 -3.440046 -18.875885 -2.356339 
-0.582902 44.364986 0.032911 13.129300 -4.061290 -12.841300 -30.790899 1.401720 -2.803740 7.695250 -0.180892 -1.208700 24.269501 -3.053570 -1.176550 16.261101 2.771220 0.243863 2.000000 -2.000000 0.000000 -75.503899 6.877780 -153.334000 135.576004 -0.110230 0.112328 0.113213 -0.141302 168.009995 -2.000000 2.000000 0.000000 -118.403000 -164.559006 0.527411 -133.115005 0.128079 0.082918 179.910004 179.889999 4.289290 -0.913780 4.529703 -38.003380 -0.125369 4.244586 -0.134969 -34.666729 47.556351 28.166061 -8.651759 8.181417 24.017193 -0.929196 -0.331539 -0.329794 -3.249244 -18.209150 -2.303814 
-0.595643 44.343773 0.051219 13.196700 -3.993600 -13.162600 -30.845301 1.543850 -2.533100 7.861140 -0.304860 -1.044600 25.426901 -3.183610 -1.265710 16.758499 2.669580 0.236624 2.000000 -2.000000 0.000000 -75.527397 9.537170 -156.408005 137.334000 -0.107134 0.109070 0.110896 -0.139653 169.026001 -2.000000 2.000000 0.000000 -115.737000 -164.817001 2.842510 -135.283005 0.124635 0.079569 179.912003 179.901993 5.363480 -0.796776 4.482917 -38.246025 -0.172906 4.242973 -0.134985 -35.762608 47.685108 29.219851 -8.864324 8.294675 23.679380 -0.586251 -0.493223 -0.304186 -3.153936 -17.605274 -2.085697 
-0.609667 44.327969 0.082258 13.165600 -3.889480 -13.370500 -30.897499 1.611700 -2.296200 8.017170 -0.457569 -0.904092 26.660299 -3.513570 -1.480890 17.273800 2.444310 0.179498 2.000000 -2.000000 0.000000 -75.775398 12.128200 -159.410995 139.033005 -0.104238 0.105832 0.110101 -0.139072 169.376999 -2.000000 2.000000 0.000000 -113.169998 -165.192001 5.489920 -137.089996 0.121863 0.076681 179.912003 179.901993 5.304890 -0.620900 4.344384 -38.474003 -0.194832 4.241891 -0.144553 -36.598312 47.811985 30.008312 -8.831342 8.192126 23.570776 -0.624659 -0.458608 -0.316147 -3.117361 -17.269501 -2.078120 
-0.625015 44.314342 0.119380 13.104800 -3.757250 -13.549800 -30.949301 1.653320 -1.965440 8.231600 -0.658299 -0.735085 27.631100 -3.367560 -1.545960 17.635700 2.458850 0.160426 2.000000 -2.000000 0.000000 -76.003197 14.261200 -161.945007 140.419998 -0.101946 0.103127 0.111918 -0.140387 168.576004 -2.000000 2.000000 0.000000 -110.846001 -165.429993 7.990520 -138.535004 0.119713 0.074308 179.901001 179.889999 4.455310 -0.405614 4.161960 -38.656456 -0.223538 4.240514 -0.144539 -37.561813 47.699669 30.838871 -8.724161 8.038922 23.552757 -0.709276 -0.416624 -0.320021 -3.128328 -17.047281 -2.091947 
-0.643925 44.305859 0.136544 13.103100 -3.643120 -13.728400 -31.031000 1.750410 -1.568030 8.416670 -0.830612 -0.504945 28.672001 -2.512330 -1.563260 18.030500 2.738150 0.131287 2.000000 -2.000000 0.000000 -76.123001 15.926300 -164.039001 141.270004 -0.100574 0.101442 0.115696 -0.133235 166.936005 -2.000000 2.000000 0.000000 71.193703 -14.428100 -170.007004 -139.561005 0.118224 0.072592 179.908997 179.897003 3.322480 -0.356785 4.056449 -38.622601 -0.192582 4.242152 -0.134938 -38.213791 47.445541 31.335699 -8.797147 8.061474 23.639063 -0.499031 -0.530110 -0.329747 -3.193960 -16.976650 -1.999378 
-0.657457 44.303558 0.152337 13.033500 -3.568010 -13.833400 -31.121799 1.864110 -1.180910 8.533430 -0.964696 -0.292626 29.378099 -1.759000 -1.441030 18.201200 3.038780 0.166857 2.000000 -2.000000 0.000000 -76.017303 17.261499 -165.197006 141.464996 -0.100263 0.101052 0.121499 -0.146716 164.475006 -2.000000 2.000000 0.000000 72.931198 -14.265700 -168.453995 -140.205002 0.117303 0.071500 179.906998 179.895004 2.394750 -0.278653 3.978353 -38.530449 -0.181276 4.242637 -0.135073 -38.583828 47.238132 31.583744 -8.689164 7.923287 23.678795 -0.636652 -0.440104 -0.346262 -3.224518 -16.845766 -2.075652 
-0.659518 44.299706 0.176268 12.858000 -3.608610 -13.831100 -31.133499 1.977480 -0.823996 8.728140 -1.127880 -0.095882 30.239401 -0.824846 -1.272450 18.480900 3.393830 0.206050 2.000000 -2.000000 0.000000 -75.715599 18.129499 -165.725998 141.044998 -0.100935 0.101890 0.126311 -0.149539 162.483002 -2.000000 2.000000 0.000000 74.434196 -13.917000 -167.212997 -140.537003 0.116834 0.070933 179.906006 179.893997 1.867400 -0.053997 3.962180 -38.443672 -0.159092 4.243498 -0.135309 -38.799885 47.032158 31.712801 -8.455059 7.902771 23.471487 -0.678659 -0.410605 -0.328875 -3.300431 -16.655193 -2.089622 
